<svg
  xmlns="http://www.w3.org/2000/svg"
  width="177.171"
  height="123.857"
  viewBox="0 0 177.171 123.857"
>
  <g id="Group_9" data-name="Group 9" transform="translate(-10 -157.5)">
    <g id="Group_8" data-name="Group 8" transform="translate(10 157.5)">
      <g id="Group_7" data-name="Group 7" transform="translate(0 0)">
        <path
          id="Path_34"
          data-name="Path 34"
          d="M165.982,177.549l-21.17,9.781h-8.153a3.727,3.727,0,0,0-2.332,1.1V176.5a19,19,0,0,0-19-19H29a18.976,18.976,0,0,0-19,19v68.97a19,19,0,0,0,19,19.019h73.092V254.365a9.035,9.035,0,0,1,9.021-9.021h3.561V241.8a9.035,9.035,0,0,1,9.021-9.021h10.7a8.972,8.972,0,0,1,6,2.332h4.429s9.473,4.212,21.17,9.4,21.17-9.889,21.17-33.662C187.171,187.04,177.7,172.107,165.982,177.549Z"
          transform="translate(-10 -157.5)"
          fill="#eee"
        />
        <path
          id="Path_35"
          data-name="Path 35"
          d="M575.891,603.2h-10.7a3.719,3.719,0,0,0-3.724,3.724v8.84h-8.84a3.719,3.719,0,0,0-3.724,3.724v10.7a3.719,3.719,0,0,0,3.724,3.724h8.84v8.841a3.719,3.719,0,0,0,3.724,3.724h10.7a3.719,3.719,0,0,0,3.724-3.724v-8.841h8.84a3.719,3.719,0,0,0,3.724-3.724v-10.7a3.731,3.731,0,0,0-3.724-3.724h-8.84v-8.84A3.719,3.719,0,0,0,575.891,603.2Z"
          transform="translate(-451.474 -522.624)"
          fill="#eee"
        />
      </g>
    </g>
  </g>
</svg>
